# xmcd
#
# Track frame offsets:
#	150
#	14205
#	33340
#	58122
#
# Disc length: 1343 seconds
#
# Revision: 1
# Processed by: cddbd v1.4PL0 Copyright (c) Steve Scherf et al.
# Submitted via: EasyCDDAExtractor 6.0.0.1
#
DISCID=32053d04
DTITLE=Tweet - Call Me
DYEAR=2002
DGENRE=R&B
TTITLE0=Call Me (C and J Radio Mix)
TTITLE1=Call me feat The Hoodfellaz (Puffy remix)
TTITLE2=Call Me (album mix)
TTITLE3=Call Me (Video)
EXTD=
EXTT0=
EXTT1=
EXTT2=
EXTT3=
PLAYORDER=
